<svg width="250" height="118" viewBox="0 0 250 118" fill="none" xmlns="http://www.w3.org/2000/svg">
<path fill-rule="evenodd" clip-rule="evenodd" d="M0.876161 54.1679C4.53633 33.6706 19.0712 14.9381 33.1884 0.821004C33.7359 0.273661 34.4532 0 35.1705 0V35.039H23.7901C23.1676 32.6209 20.9726 30.8343 18.3604 30.8343C15.2641 30.8343 12.7541 33.3443 12.7541 36.4404C12.7541 38.5673 13.9386 40.4176 15.684 41.3677L12.711 53.2593C9.6347 53.2826 7.14806 55.7836 7.14806 58.8654C7.14806 61.8577 9.49216 64.3025 12.4445 64.4633L15.9213 81.8473C14.0469 82.7544 12.7541 84.6745 12.7541 86.8965C12.7541 89.9928 15.2641 92.5028 18.3604 92.5028C19.4 92.5028 20.3736 92.2198 21.2083 91.7266L30.349 100.867C29.8558 101.702 29.5728 102.676 29.5728 103.715C29.5728 106.328 31.3596 108.523 33.7775 109.145V117.36C33.7045 117.318 33.6331 117.273 33.5631 117.224C19.259 107.211 10.1214 96.7024 5.04467 85.9952C-0.0463428 75.2579 -0.968638 64.498 0.876161 54.1679ZM35.1705 76.6116V98.1091C34.1341 98.1105 33.1636 98.3933 32.3313 98.8853L23.1903 89.7445C23.6836 88.9099 23.9667 87.9363 23.9667 86.8965C23.9667 86.1861 23.8345 85.5064 23.5934 84.881L35.1705 76.6116ZM35.1705 64.4717V73.1548L30.3192 69.6895L33.5875 64.2425C34.0893 64.3908 34.6208 64.4709 35.1705 64.4717ZM35.1705 47.6702V53.2591C34.417 53.2604 33.6985 53.41 33.0425 53.6806L30.5254 50.3247L35.1705 47.6702ZM35.1705 37.842V44.432L23.77 37.9175L23.7901 37.842H35.1705ZM15.4306 53.9382L18.4035 42.0465C19.1444 42.041 19.851 41.8916 20.497 41.6252L26.3777 49.4663L16.7719 54.9555C16.38 54.5529 15.928 54.2089 15.4306 53.9382ZM15.1933 63.9146L18.6701 81.2988C19.1131 81.3228 19.5424 81.3984 19.9521 81.5195L26.5842 70.4663L16.3567 63.1611C16.0035 63.4577 15.6129 63.7115 15.1933 63.9146ZM17.9873 60.8809L28.031 68.0549L31.1845 62.7989C30.1878 61.7868 29.5728 60.398 29.5728 58.8654C29.5728 57.5405 30.0324 56.323 30.8008 55.3635L28.0728 51.7261L18.1639 57.3885C18.2921 57.859 18.3604 58.3543 18.3604 58.8654C18.3604 59.5758 18.2282 60.2555 17.9873 60.8809ZM28.8723 72.1009L32.7677 74.8831L23.0293 81.8393L28.8723 72.1009ZM28.8305 48.0646L23.545 41.0174L32.3542 46.0512L28.8305 48.0646Z" fill="white"/>
<path fill-rule="evenodd" clip-rule="evenodd" d="M65.2491 85.9952C60.1724 96.7024 51.0348 107.211 36.7305 117.224C36.6813 117.258 36.6315 117.291 36.5806 117.322V109.145C38.9987 108.523 40.7853 106.328 40.7853 103.715C40.7853 102.676 40.5023 101.702 40.0091 100.867L49.1498 91.7266C49.9845 92.2198 50.958 92.5028 51.9979 92.5028C55.094 92.5028 57.604 89.9928 57.604 86.8965C57.604 84.6745 56.3112 82.7544 54.437 81.8473L57.9138 64.4633C60.8659 64.3025 63.2103 61.8577 63.2103 58.8654C63.2103 55.7836 60.7236 53.2826 57.6473 53.2593L54.6744 41.3677C56.4195 40.4176 57.604 38.5673 57.604 36.4404C57.604 33.3443 55.094 30.8343 51.9979 30.8343C49.3855 30.8343 47.1905 32.6209 46.5682 35.039H35.123V0C35.8404 0 36.5577 0.273661 37.1051 0.821004C51.2223 14.9381 65.7572 33.6706 69.4176 54.1679C71.2622 64.498 70.3399 75.2579 65.2491 85.9952ZM35.123 44.4049V37.842H46.5682L46.5881 37.9175L35.1792 44.4369L35.123 44.4049ZM35.123 53.2595V47.6974L35.1792 47.6654L39.8327 50.3247L37.3158 53.6806C36.6573 53.409 35.9356 53.2591 35.1792 53.2591C35.1605 53.2591 35.1418 53.2593 35.123 53.2595ZM35.123 73.1207V64.4713C35.1418 64.4715 35.1605 64.4717 35.1792 64.4717C35.7321 64.4717 36.2663 64.3916 36.7709 64.2425L40.0391 69.6895L35.1792 73.1609L35.123 73.1207ZM35.123 98.1093V76.6457L35.1792 76.6055L46.7647 84.881C46.5238 85.5064 46.3916 86.1861 46.3916 86.8965C46.3916 87.9363 46.6745 88.9099 47.1677 89.7445L38.027 98.8853C37.1924 98.392 36.2188 98.1091 35.1792 98.1091C35.1605 98.1091 35.1418 98.1091 35.123 98.1093ZM49.8613 41.6252L43.9804 49.4663L53.5864 54.9553C53.9783 54.5527 54.4301 54.2089 54.9275 53.9382L51.9546 42.0465C51.2137 42.041 50.5071 41.8916 49.8613 41.6252ZM52.1944 57.3885L42.2855 51.7261L39.5573 55.3635C40.3257 56.323 40.7853 57.5405 40.7853 58.8654C40.7853 60.398 40.1703 61.7868 39.1738 62.7989L42.3273 68.0549L52.371 60.8809C52.1299 60.2555 51.9979 59.5758 51.9979 58.8654C51.9979 58.3543 52.0662 57.859 52.1944 57.3885ZM54.0014 63.1611L43.7742 70.4663L50.406 81.5195C50.8159 81.3984 51.245 81.3228 51.688 81.2988L55.1648 63.9146C54.7452 63.7115 54.3548 63.4577 54.0014 63.1611ZM47.329 81.8393L37.5903 74.8831L41.4858 72.1009L47.329 81.8393ZM41.5276 48.0646L38.0041 46.0512L46.8131 41.0174L41.5276 48.0646Z" fill="white" fill-opacity="0.87"/>
<g opacity="0.2">
<path opacity="0.2" d="M18.3604 92.5027C21.4566 92.5027 23.9666 89.9927 23.9666 86.8965C23.9666 83.8002 21.4566 81.2902 18.3604 81.2902C15.2641 81.2902 12.7542 83.8002 12.7542 86.8965C12.7542 89.9927 15.2641 92.5027 18.3604 92.5027Z" fill="white"/>
<path opacity="0.2" d="M51.9977 92.5027C55.0939 92.5027 57.6039 89.9927 57.6039 86.8965C57.6039 83.8002 55.0939 81.2902 51.9977 81.2902C48.9015 81.2902 46.3915 83.8002 46.3915 86.8965C46.3915 89.9927 48.9015 92.5027 51.9977 92.5027Z" fill="white"/>
<path opacity="0.2" d="M35.1791 109.321C38.2753 109.321 40.7853 106.811 40.7853 103.715C40.7853 100.619 38.2753 98.1089 35.1791 98.1089C32.0829 98.1089 29.5729 100.619 29.5729 103.715C29.5729 106.811 32.0829 109.321 35.1791 109.321Z" fill="white"/>
<path opacity="0.2" d="M57.604 64.4716C60.7003 64.4716 63.2103 61.9616 63.2103 58.8654C63.2103 55.7691 60.7003 53.2591 57.604 53.2591C54.5078 53.2591 51.9978 55.7691 51.9978 58.8654C51.9978 61.9616 54.5078 64.4716 57.604 64.4716Z" fill="white"/>
<path opacity="0.2" d="M35.1791 64.4716C38.2753 64.4716 40.7853 61.9616 40.7853 58.8654C40.7853 55.7691 38.2753 53.2591 35.1791 53.2591C32.0829 53.2591 29.5729 55.7691 29.5729 58.8654C29.5729 61.9616 32.0829 64.4716 35.1791 64.4716Z" fill="white"/>
<path opacity="0.2" d="M12.7541 64.4716C15.8503 64.4716 18.3603 61.9616 18.3603 58.8654C18.3603 55.7691 15.8503 53.2591 12.7541 53.2591C9.65782 53.2591 7.14783 55.7691 7.14783 58.8654C7.14783 61.9616 9.65782 64.4716 12.7541 64.4716Z" fill="white"/>
<path opacity="0.2" d="M18.3604 42.0466C21.4566 42.0466 23.9666 39.5366 23.9666 36.4404C23.9666 33.3442 21.4566 30.8342 18.3604 30.8342C15.2641 30.8342 12.7542 33.3442 12.7542 36.4404C12.7542 39.5366 15.2641 42.0466 18.3604 42.0466Z" fill="white"/>
<path opacity="0.2" d="M51.9977 42.0466C55.0939 42.0466 57.6039 39.5366 57.6039 36.4404C57.6039 33.3442 55.0939 30.8342 51.9977 30.8342C48.9015 30.8342 46.3915 33.3442 46.3915 36.4404C46.3915 39.5366 48.9015 42.0466 51.9977 42.0466Z" fill="white"/>
</g>
<path fill-rule="evenodd" clip-rule="evenodd" d="M162.749 39.2436H85.6631V78.4871H162.749V39.2436ZM154.331 64.4157C154.903 62.9018 155.189 61.2425 155.189 59.4374C155.189 57.6321 154.903 55.9782 154.331 54.4757C153.759 52.9622 152.952 51.6615 151.909 50.574C150.867 49.4751 149.611 48.6228 148.142 48.0173C146.684 47.4118 145.07 47.1091 143.298 47.1091C141.527 47.1091 139.912 47.4118 138.454 48.0173C136.997 48.6228 135.747 49.4751 134.704 50.574C133.661 51.6615 132.854 52.9622 132.282 54.4757C131.71 55.9782 131.424 57.6321 131.424 59.4374C131.424 61.2425 131.71 62.9018 132.282 64.4157C132.854 65.9181 133.661 67.2131 134.704 68.3006C135.747 69.3884 136.997 70.2348 138.454 70.8403C139.912 71.4346 141.527 71.7316 143.298 71.7316C145.07 71.7316 146.684 71.4346 148.142 70.8403C149.611 70.2348 150.867 69.3884 151.909 68.3006C152.952 67.2131 153.759 65.9181 154.331 64.4157ZM151.237 55.4514C151.64 56.6285 151.842 57.9571 151.842 59.4374C151.842 60.9174 151.64 62.2461 151.237 63.4234C150.833 64.5894 150.261 65.5817 149.521 66.4003C148.781 67.2074 147.884 67.8299 146.83 68.267C145.776 68.6931 144.599 68.9061 143.298 68.9061C142.009 68.9061 140.837 68.6931 139.783 68.267C138.729 67.8299 137.827 67.2074 137.075 66.4003C136.335 65.5817 135.763 64.5894 135.36 63.4234C134.956 62.2461 134.754 60.9174 134.754 59.4374C134.754 57.9571 134.956 56.6285 135.36 55.4514C135.763 54.2741 136.335 53.2818 137.075 52.4742C137.827 51.6558 138.729 51.0281 139.783 50.5906C140.837 50.1533 142.009 49.9346 143.298 49.9346C144.599 49.9346 145.776 50.1533 146.83 50.5906C147.884 51.0281 148.781 51.6558 149.521 52.4742C150.261 53.2818 150.833 54.2741 151.237 55.4514ZM102.807 68.8895C103.738 68.8895 104.539 68.7829 105.212 68.5697C105.885 68.3568 106.434 68.0597 106.86 67.6786C107.298 67.286 107.617 66.8263 107.819 66.2994C108.021 65.761 108.122 65.1724 108.122 64.5332C108.122 63.2887 107.679 62.3077 106.793 61.5902C105.907 60.8613 104.579 60.4968 102.807 60.4968H97.5932V68.8895H102.807ZM97.5932 49.9514V58.1758H101.899C102.818 58.1758 103.614 58.0749 104.287 57.8733C104.971 57.6712 105.532 57.391 105.969 57.0321C106.417 56.6735 106.748 56.2416 106.961 55.7371C107.174 55.2214 107.281 54.6607 107.281 54.0554C107.281 52.6313 106.855 51.594 106.003 50.9438C105.15 50.2824 103.827 49.9514 102.033 49.9514H97.5932ZM102.033 47.3784C103.513 47.3784 104.786 47.5241 105.851 47.8157C106.928 48.1071 107.808 48.5221 108.492 49.0601C109.187 49.5983 109.697 50.2599 110.022 51.0447C110.347 51.8183 110.51 52.6929 110.51 53.6686C110.51 54.2627 110.415 54.8345 110.224 55.3841C110.045 55.9221 109.77 56.4266 109.4 56.8976C109.03 57.3685 108.559 57.7946 107.987 58.1758C107.426 58.546 106.765 58.8485 106.003 59.084C107.774 59.4206 109.103 60.0538 109.989 60.9847C110.886 61.9041 111.334 63.115 111.334 64.6173C111.334 65.6378 111.143 66.5685 110.762 67.4092C110.392 68.2502 109.843 68.9734 109.114 69.5789C108.396 70.1843 107.511 70.6555 106.457 70.9918C105.403 71.3169 104.203 71.4794 102.857 71.4794H94.3472V47.3784H102.033ZM123.056 71.4794H119.793V47.3784H123.056V71.4794Z" fill="white"/>
<path d="M170.491 50.0356V58.4618H180.397V61.1191H170.491V71.4794H167.228V47.3783H182.079V50.0356H170.491Z" fill="white"/>
<path d="M202.462 68.8221L202.445 71.4794H187.594V47.3783H202.445V50.0356H190.857V58.0413H200.242V60.5978H190.857V68.8221H202.462Z" fill="white"/>
<path d="M223.22 68.8221L223.204 71.4794H208.353V47.3783H223.204V50.0356H211.615V58.0413H221V60.5978H211.615V68.8221H223.22Z" fill="white"/>
<path d="M250 59.4373C250 61.2425 249.714 62.8851 249.142 64.3651C248.57 65.8452 247.763 67.1123 246.72 68.1662C245.678 69.2201 244.422 70.0387 242.953 70.6217C241.496 71.1935 239.881 71.4794 238.109 71.4794H229.111V47.3783H238.109C239.881 47.3783 241.496 47.6699 242.953 48.2528C244.422 48.8247 245.678 49.6431 246.72 50.7084C247.763 51.7623 248.57 53.0293 249.142 54.5094C249.714 55.9894 250 57.632 250 59.4373ZM246.653 59.4373C246.653 57.9572 246.451 56.6342 246.048 55.4681C245.644 54.3019 245.072 53.3153 244.332 52.508C243.592 51.7007 242.696 51.0841 241.641 50.6579C240.588 50.2318 239.411 50.0188 238.109 50.0188H232.374V68.8389H238.109C239.411 68.8389 240.588 68.6259 241.641 68.1998C242.696 67.7737 243.592 67.1627 244.332 66.3666C245.072 65.5593 245.644 64.5726 246.048 63.4065C246.451 62.2403 246.653 60.9173 246.653 59.4373Z" fill="white"/>
</svg>
